<svg xmlns="http://www.w3.org/2000/svg" width="96" height="29" viewBox="0 0 100 32" fill="none">
  <g clip-path="url(#clip0_1_2)">
    <path d="M44.1 11.9H36.3L40.9 28.3H48.7L44.1 11.9Z" fill="#00579F"/>
    <path d="M35.4 11.9L28 28.3H20.6L17.1 14.9C17 14.5 16.9 14.3 16.6 14.2C15.6 13.7 13.8 13.2 12.3 12.9L12.4 11.9H23.7C24.9 11.9 25.9 12.7 26.2 14L28 22.8L32.8 11.9H35.4Z" fill="#00579F"/>
    <path d="M71.4 11.9H64.7C63.6 11.9 62.7 12.3 62.2 13.5L54.7 28.3H62.2L63.4 25.1H70.7L71.4 28.3H78.2L74.2 11.9H71.4ZM65.4 20.9L68.2 14.8L69.6 20.9H65.4Z" fill="#00579F"/>
    <path d="M58.1 17.1L59.1 12.6C57.2 11.7 54.8 11.1 52.1 11.1C47.5 11.1 44.3 13.5 44.3 17C44.3 19.6 46.5 21.1 48.3 22C50.1 22.9 50.7 23.5 50.7 24.3C50.7 25.5 49.3 26.1 48 26.1C45.9 26.1 44.9 25.8 43.1 25L42 25.3L41 29.7C43.3 30.4 45.5 30.7 47.7 30.7C52.7 30.8 55.8 28.4 55.8 24.6C55.8 22.6 54.6 21 52 19.7C50.4 18.9 49.4 18.3 49.4 17.4C49.4 16.6 50.3 15.8 52.2 15.8C53.8 15.8 54.9 16.1 55.8 16.5L56.7 16.8L58.1 17.1Z" fill="#00579F"/>
    <path d="M87.7 11.9L86.6 12L81.3 28.3H88.6L94 12.1C93.3 12 92.6 11.9 91.8 11.9H87.7Z" fill="#00579F"/>
  </g>
  <defs>
    <clipPath id="clip0_1_2">
      <rect width="100" height="32" fill="white"/>
    </clipPath>
  </defs>
</svg>