<svg xmlns="http://www.w3.org/2000/svg" viewBox="0 0 576 188" width="100" height="32" fill="none">
  <path d="M470.1 7.27L452.4 104.7H428.7L446.4 7.27H470.1ZM576 7.27L539.8 104.7H515.3L494.1 28.9C492.8 24.6 491.9 23.2 488.3 21.4C481 17.7 469.3 14.3 459 12L459.9 7.27H499.8C506.1 7.27 511.5 12 513 18.6L526.2 77.2L550.6 7.27H576ZM340.3 44.9C340.3 34.5 348.2 25.6 363.8 25.6C375.4 25.6 384.3 30.4 390.7 35.2L395.8 13.9C389.1 9.97 378.1 7.27 366.3 7.27C336 7.27 313.9 25.9 313.9 52.1C313.9 71.1 329.4 81.5 340.3 87.7C351.6 94 355.9 98.2 355.9 104.1C355.9 112.7 345.4 116.6 335.8 116.6C322.4 116.6 308.8 110.9 299.2 105.9L294 127.6C303.9 132.5 318.4 136.1 333.2 136.1C366.3 136.6 381.8 118.2 381.8 91.4C381.8 61.1 340.3 59.7 340.3 44.9ZM244.9 7.27L192.4 104.7H166.7L140.7 22.4C139.4 18.6 138.2 17.2 134.6 15.3C127.3 11.6 115.9 8.2 105.6 6.09L106.5 1.89L150.9 1.8C157.2 1.8 162.9 6.57 164.4 13.5L178.7 79.5L212.1 7.27H244.9ZM272.7 7.27L250.4 104.7H226.8L249.1 7.27H272.7Z" fill="#1434CB"/>
</svg>